# xmcd CD database file
#
# Track frame offsets:
#	150
#	11939
#	62204
#	83309
#	106819
#	119589
#	157734
#
# Disc length: 2588 seconds
#
# Revision: 0
# Processed by: cddbd v1.5.1PL0 Copyright (c) Steve Scherf et al.
# Submitted via: CDex 1.51
#
DISCID=4b0a1a07
DTITLE=Simon and Markus Stockhausen - non Duality
DYEAR=2005
DGENRE=Jazz
TTITLE0=Portal
TTITLE1=Weltfenster
TTITLE2=Freitagsglocken
TTITLE3=Harlekino
TTITLE4=Transit
TTITLE5=Endzeit
TTITLE6=Neuzeit
EXTD=YEAR: 2005
EXTT0=
EXTT1=
EXTT2=
EXTT3=
EXTT4=
EXTT5=
EXTT6=
PLAYORDER=
